<?xml version="1.0" standalone="no"?>
<!DOCTYPE svg PUBLIC "-//W3C//DTD SVG 20010904//EN"
 "http://www.w3.org/TR/2001/REC-SVG-20010904/DTD/svg10.dtd">
<svg version="1.0" xmlns="http://www.w3.org/2000/svg"
 width="512.000000pt" height="512.000000pt" viewBox="0 0 512.000000 512.000000"
 preserveAspectRatio="xMidYMid meet">

<g transform="translate(0.000000,512.000000) scale(0.100000,-0.100000)"
fill="#000000" stroke="none">
<path d="M2289 5020 c-214 -39 -446 -136 -626 -263 -103 -72 -267 -233 -340
-331 -190 -257 -291 -536 -309 -861 -37 -631 397 -1748 1193 -3073 184 -306
228 -369 272 -392 51 -26 111 -26 162 1 46 23 89 85 290 419 374 623 723 1320
914 1824 113 299 191 572 236 821 29 163 32 466 6 600 -124 629 -569 1094
-1187 1242 -148 35 -453 42 -611 13z m459 -716 c286 -73 503 -277 591 -554 62
-197 45 -401 -49 -595 -86 -177 -199 -289 -375 -375 -132 -64 -221 -84 -360
-83 -379 2 -700 258 -792 631 -24 99 -21 284 6 386 84 315 352 557 671 605 80
12 231 5 308 -15z"/>
</g>
</svg>
